<svg width="703" height="206" viewBox="0 0 703 206" fill="none"
    xmlns="http://www.w3.org/2000/svg">
    <path d="M56.4671 3.59999V6.89999L55.6971 25.38L54.4871 36.93H38.2071L36.9971 25.38L36.2271 6.89999V3.59999H56.4671ZM91.8871 43.97L88.6971 44.96L70.8771 49.91L59.5471 52.33L54.4871 36.82L65.1571 32.2L82.5371 25.71L85.6171 24.72L91.8871 43.97ZM64.3871 90.06L62.5171 87.42L52.2871 72.02L46.3471 61.9L59.6571 52.33L67.3571 61.02L78.7971 75.54L80.7771 78.29L64.3871 90.06ZM7.07711 24.72L10.1571 25.71L27.5371 32.2L38.2071 36.82L33.0371 52.33L21.7071 49.91L3.99711 44.96L0.80711 43.97L7.07711 24.72ZM11.9171 78.29L13.8971 75.54L25.2271 61.02L33.0371 52.33L46.2371 61.9L40.4071 72.02L30.1771 87.42L28.3071 90.06L11.9171 78.29ZM46.3471 63.33C43.6338 63.33 41.0671 62.67 38.6471 61.35C36.3004 59.9567 34.4304 58.0867 33.0371 55.74C31.7171 53.3933 31.0571 50.8267 31.0571 48.04C31.0571 45.3267 31.7171 42.7967 33.0371 40.45C34.4304 38.1033 36.3004 36.2333 38.6471 34.84C41.0671 33.4467 43.6338 32.75 46.3471 32.75C49.0604 32.75 51.5904 33.4467 53.9371 34.84C56.2838 36.2333 58.1538 38.1033 59.5471 40.45C60.9404 42.7967 61.6371 45.3267 61.6371 48.04C61.6371 50.8267 60.9404 53.3933 59.5471 55.74C58.1538 58.0867 56.2838 59.9567 53.9371 61.35C51.5904 62.67 49.0604 63.33 46.3471 63.33ZM99.5459 46.83C99.5459 37.6633 101.893 29.6333 106.586 22.74C111.353 15.8467 118.393 10.4933 127.706 6.67999C137.093 2.86666 148.496 0.959988 161.916 0.959988C175.483 0.959988 187.069 2.93999 196.676 6.89999C206.283 10.86 213.726 16.5433 219.006 23.95C224.286 31.3567 227.219 40.1567 227.806 50.35V53.65H196.346C196.053 47.1967 194.403 41.99 191.396 38.03C188.463 34.07 184.503 31.2467 179.516 29.56C174.603 27.8 168.846 26.92 162.246 26.92C156.013 26.92 150.659 27.6533 146.186 29.12C141.713 30.5867 138.266 32.75 135.846 35.61C133.499 38.3967 132.326 41.8067 132.326 45.84C132.326 49.8733 133.389 53.21 135.516 55.85C137.643 58.49 140.723 60.6167 144.756 62.23C148.789 63.77 153.886 64.98 160.046 65.86L177.646 68.39C189.159 70.0033 198.729 72.68 206.356 76.42C214.056 80.16 219.886 85.2567 223.846 91.71C227.879 98.1633 229.896 106.12 229.896 115.58C229.896 125.407 227.439 134.023 222.526 141.43C217.613 148.763 210.316 154.483 200.636 158.59C191.029 162.623 179.296 164.64 165.436 164.64C151.503 164.64 139.366 162.587 129.026 158.48C118.686 154.3 110.656 148.433 104.936 140.88C99.2892 133.253 96.2459 124.343 95.8059 114.15V110.85H127.266C128.073 120.457 131.813 127.497 138.486 131.97C145.233 136.443 154.033 138.68 164.886 138.68C171.706 138.68 177.536 137.873 182.376 136.26C187.216 134.573 190.883 132.117 193.376 128.89C195.869 125.663 197.116 121.777 197.116 117.23C197.116 112.83 196.053 109.237 193.926 106.45C191.799 103.663 188.683 101.5 184.576 99.96C180.469 98.42 175.116 97.1733 168.516 96.22L150.916 93.69C139.769 92.0767 130.383 89.3267 122.756 85.44C115.129 81.48 109.336 76.31 105.376 69.93C101.489 63.4767 99.5459 55.7767 99.5459 46.83ZM243.168 46.83H274.738V58.05H276.498C280.458 53.3567 285.371 49.9467 291.238 47.82C297.105 45.62 303.815 44.52 311.368 44.52C321.268 44.52 330.178 46.7567 338.098 51.23C346.018 55.63 352.288 62.34 356.908 71.36C361.528 80.3067 363.838 91.3433 363.838 104.47C363.838 117.597 361.528 128.67 356.908 137.69C352.288 146.637 346.018 153.31 338.098 157.71C330.178 162.11 321.268 164.31 311.368 164.31C304.035 164.31 297.508 163.32 291.788 161.34C286.068 159.36 281.228 156.17 277.268 151.77H275.618V206H243.168V46.83ZM274.188 104.47C274.188 111.877 275.361 118.22 277.708 123.5C280.055 128.707 283.355 132.667 287.608 135.38C291.935 138.02 296.958 139.34 302.678 139.34C308.398 139.34 313.385 138.02 317.638 135.38C321.965 132.667 325.301 128.707 327.648 123.5C329.995 118.22 331.168 111.877 331.168 104.47C331.168 96.99 329.995 90.6467 327.648 85.44C325.301 80.2333 321.965 76.2733 317.638 73.56C313.385 70.8467 308.398 69.49 302.678 69.49C296.958 69.49 291.935 70.8467 287.608 73.56C283.355 76.2733 280.055 80.2333 277.708 85.44C275.361 90.6467 274.188 96.99 274.188 104.47ZM377.191 79.94C377.998 72.7533 380.601 66.4833 385.001 61.13C389.474 55.7033 395.561 51.5233 403.261 48.59C411.034 45.6567 420.164 44.19 430.651 44.19C441.431 44.19 450.634 45.84 458.261 49.14C465.888 52.44 471.754 57.5 475.861 64.32C479.968 71.0667 482.021 79.61 482.021 89.95V162H452.101V150.12H450.341C447.921 154.08 443.888 157.38 438.241 160.02C432.594 162.66 424.858 163.98 415.031 163.98C406.231 163.98 398.531 162.587 391.931 159.8C385.331 156.94 380.198 152.87 376.531 147.59C372.938 142.237 371.141 135.93 371.141 128.67C371.141 117.743 374.844 109.31 382.251 103.37C389.731 97.43 399.668 93.7267 412.061 92.26L451.001 87.42V85.33C451.001 79.17 449.278 74.66 445.831 71.8C442.384 68.8667 437.178 67.4 430.211 67.4C423.244 67.4 417.818 68.7567 413.931 71.47C410.044 74.11 407.844 78.0333 407.331 83.24H377.191V79.94ZM403.371 126.8C403.371 130.98 405.021 134.28 408.321 136.7C411.621 139.12 416.241 140.33 422.181 140.33C427.828 140.33 432.814 139.34 437.141 137.36C441.468 135.38 444.841 132.41 447.261 128.45C449.754 124.49 451.001 119.65 451.001 113.93V109.2L419.431 113.38C414.444 114.04 410.521 115.47 407.661 117.67C404.801 119.87 403.371 122.913 403.371 126.8ZM531.261 46.83V59.7H533.021C535.221 55.2267 538.411 51.89 542.591 49.69C546.771 47.49 552.381 46.39 559.421 46.39H575.481V72.79H559.311C553.225 72.79 548.238 73.8167 544.351 75.87C540.465 77.85 537.531 81.0033 535.551 85.33C533.645 89.6567 532.691 95.1933 532.691 101.94V162H500.241V46.83H531.261ZM618.689 3.59999V162H586.239V3.59999H618.689ZM620.449 89.18L665.219 46.83H702.399V50.13L645.969 101.72L702.729 158.7V162H664.449L620.449 115.91H616.049V89.18H620.449Z" fill="black"/>
</svg>
