<svg width="25" height="24" viewBox="0 0 25 24" fill="none"
    xmlns="http://www.w3.org/2000/svg">
    <path d="M16 14.25C19.1756 14.25 21.75 11.6756 21.75 8.5C21.75 5.32436 19.1756 2.75 16 2.75C12.8244 2.75 10.25 5.32436 10.25 8.5C10.25 8.98191 10.3093 9.44996 10.4209 9.89728L4.25 16.0682V20.2501H8.43182L9.75 18.9319V16.2501H12.4318L14.6028 14.0791C15.0501 14.1907 15.5181 14.25 16 14.25Z" stroke="#F9F9F9" stroke-width="1.5" stroke-linecap="round" stroke-linejoin="round"/>
    <path d="M17.75 8.5C17.75 9.4665 16.9665 10.25 16 10.25C15.0335 10.25 14.25 9.4665 14.25 8.5C14.25 7.5335 15.0335 6.75 16 6.75C16.9665 6.75 17.75 7.5335 17.75 8.5Z" stroke="#F9F9F9" stroke-width="1.5" stroke-linecap="square"/>
</svg>
