<svg width="40" height="40" viewBox="0 0 40 40" fill="none"
    xmlns="http://www.w3.org/2000/svg">
    <path d="M0 20C0 8.95431 8.95431 0 20 0C31.0457 0 40 8.95431 40 20C40 31.0457 31.0457 40 20 40C8.95431 40 0 31.0457 0 20Z" fill="url(#paint0_linear_2472_32650)"/>
    <path d="M0 20C0 8.95431 8.95431 0 20 0C31.0457 0 40 8.95431 40 20C40 31.0457 31.0457 40 20 40C8.95431 40 0 31.0457 0 20Z" fill="white" fill-opacity="0.02"/>
    <path d="M0.165 20C0.165 9.04543 9.04543 0.165 20 0.165C30.9546 0.165 39.835 9.04543 39.835 20C39.835 30.9546 30.9546 39.835 20 39.835C9.04543 39.835 0.165 30.9546 0.165 20Z" stroke="url(#paint1_linear_2472_32650)" stroke-opacity="0.7" stroke-width="0.33"/>
    <path d="M17.1826 12.3028C17.0133 11.964 16.667 11.75 16.2882 11.75H12.75C12.1977 11.75 11.75 12.1977 11.75 12.75V13.8125C11.75 21.7861 18.2139 28.25 26.1875 28.25H27.25C27.8023 28.25 28.25 27.8023 28.25 27.25V23.7118C28.25 23.333 28.036 22.9867 27.6972 22.8174L24.7697 21.3536C24.3847 21.1611 23.9197 21.2365 23.6153 21.5409L23.0444 22.1119C22.7615 22.3947 22.3351 22.4854 21.9721 22.3173C19.9484 21.3802 18.6198 20.0516 17.6827 18.0279C17.5146 17.6649 17.6053 17.2385 17.8881 16.9556L18.4591 16.3847C18.7635 16.0803 18.8389 15.6153 18.6464 15.2303L17.1826 12.3028Z" stroke="#F9F9F9" stroke-width="1.5" stroke-linejoin="round"/>
    <defs>
        <linearGradient id="paint0_linear_2472_32650" x1="20" y1="0" x2="20" y2="40" gradientUnits="userSpaceOnUse">
            <stop stop-color="#10151C"/>
            <stop offset="0.117896" stop-color="#10151C"/>
            <stop offset="0.213837" stop-color="#11161D"/>
            <stop offset="0.2912" stop-color="#11161E"/>
            <stop offset="0.353363" stop-color="#11171E"/>
            <stop offset="0.403704" stop-color="#11171F"/>
            <stop offset="0.4456" stop-color="#12171F"/>
            <stop offset="0.48243" stop-color="#121820"/>
            <stop offset="0.51757" stop-color="#121820"/>
            <stop offset="0.5544" stop-color="#131921"/>
            <stop offset="0.596296" stop-color="#131921"/>
            <stop offset="0.646637" stop-color="#131922"/>
            <stop offset="0.7088" stop-color="#131922"/>
            <stop offset="0.786163" stop-color="#131A22"/>
            <stop offset="0.882104" stop-color="#141A22"/>
            <stop offset="1" stop-color="#141A22"/>
        </linearGradient>
        <linearGradient id="paint1_linear_2472_32650" x1="19.6667" y1="-10" x2="19.6667" y2="47" gradientUnits="userSpaceOnUse">
            <stop stop-color="#F9F9F9" stop-opacity="0.25"/>
            <stop offset="1" stop-color="#F9F9F9" stop-opacity="0.06"/>
        </linearGradient>
    </defs>
</svg>
