<svg width="129" height="128" viewBox="0 0 129 128" fill="none"
    xmlns="http://www.w3.org/2000/svg">
    <path d="M0.5 64C0.5 28.6538 29.1538 0 64.5 0C99.8462 0 128.5 28.6538 128.5 64C128.5 99.3462 99.8462 128 64.5 128C29.1538 128 0.5 99.3462 0.5 64Z" fill="#F9F9F9"/>
    <path d="M0.5 64C0.5 28.6538 29.1538 0 64.5 0C99.8462 0 128.5 28.6538 128.5 64C128.5 99.3462 99.8462 128 64.5 128C29.1538 128 0.5 99.3462 0.5 64Z" fill="#0E3154"/>
    <path d="M81.1667 72.6667V47.3334M81.1667 47.3334H55.8333M81.1667 47.3334L48.5 80" stroke="#F9F9F9" stroke-width="4" stroke-linecap="round" stroke-linejoin="round"/>
</svg>
