<svg width="25" height="24" viewBox="0 0 25 24" fill="none"
    xmlns="http://www.w3.org/2000/svg">
    <path d="M19.75 13C14.6955 13.4375 11.9375 16.1955 11.5 21.25C11.044 16.1169 8.30041 13.5721 3.25 13C8.38024 12.4083 10.9083 9.88024 11.5 4.75C12.0721 9.80041 14.6169 12.544 19.75 13Z" stroke="#F9F9F9" stroke-width="1.5" stroke-linecap="round" stroke-linejoin="round"/>
    <path d="M20.2898 1.25884C20.2731 1.11151 20.1486 1.00015 20.0003 1C19.852 0.999849 19.7272 1.11096 19.7103 1.25825C19.5998 2.21602 19.3134 2.8895 18.8515 3.35146C18.3895 3.81343 17.716 4.09979 16.7582 4.21025C16.611 4.22724 16.4998 4.35203 16.5 4.5003C16.5002 4.64857 16.6115 4.77313 16.7588 4.78981C17.7008 4.89651 18.3886 5.18275 18.8615 5.64713C19.3327 6.10977 19.625 6.7831 19.7095 7.73414C19.7229 7.88476 19.8491 8.00017 20.0003 8C20.1515 7.99983 20.2775 7.88413 20.2906 7.73349C20.3716 6.79809 20.6636 6.11059 21.1371 5.6371C21.6106 5.16361 22.2981 4.87155 23.2335 4.79058C23.3841 4.77754 23.4998 4.65154 23.5 4.50033C23.5002 4.34912 23.3848 4.22286 23.2341 4.20948C22.2831 4.125 21.6098 3.83266 21.1471 3.36151C20.6827 2.88857 20.3965 2.20078 20.2898 1.25884Z" fill="#F9F9F9"/>
</svg>
