<svg width="40" height="40" viewBox="0 0 40 40" fill="none"
    xmlns="http://www.w3.org/2000/svg">
    <path d="M0 19.2C0 12.4794 0 9.11905 1.30792 6.55211C2.4584 4.29417 4.29417 2.4584 6.55211 1.30792C9.11905 0 12.4794 0 19.2 0H20.8C27.5206 0 30.8809 0 33.4479 1.30792C35.7058 2.4584 37.5416 4.29417 38.6921 6.55211C40 9.11905 40 12.4794 40 19.2V20.8C40 27.5206 40 30.8809 38.6921 33.4479C37.5416 35.7058 35.7058 37.5416 33.4479 38.6921C30.8809 40 27.5206 40 20.8 40H19.2C12.4794 40 9.11905 40 6.55211 38.6921C4.29417 37.5416 2.4584 35.7058 1.30792 33.4479C0 30.8809 0 27.5206 0 20.8V19.2Z" fill="url(#paint0_linear_2450_30915)"/>
    <path d="M0 19.2C0 12.4794 0 9.11905 1.30792 6.55211C2.4584 4.29417 4.29417 2.4584 6.55211 1.30792C9.11905 0 12.4794 0 19.2 0H20.8C27.5206 0 30.8809 0 33.4479 1.30792C35.7058 2.4584 37.5416 4.29417 38.6921 6.55211C40 9.11905 40 12.4794 40 19.2V20.8C40 27.5206 40 30.8809 38.6921 33.4479C37.5416 35.7058 35.7058 37.5416 33.4479 38.6921C30.8809 40 27.5206 40 20.8 40H19.2C12.4794 40 9.11905 40 6.55211 38.6921C4.29417 37.5416 2.4584 35.7058 1.30792 33.4479C0 30.8809 0 27.5206 0 20.8V19.2Z" fill="white" fill-opacity="0.02"/>
    <path d="M0.165 19.2C0.165 15.837 0.165128 13.3246 0.327942 11.3319C0.490599 9.34104 0.814804 7.88336 1.45494 6.62702C2.5896 4.40012 4.40012 2.5896 6.62702 1.45494C7.88336 0.814804 9.34104 0.490599 11.3319 0.327942C13.3246 0.165128 15.837 0.165 19.2 0.165H20.8C24.163 0.165 26.6754 0.165128 28.6681 0.327942C30.659 0.490599 32.1166 0.814804 33.373 1.45494C35.5999 2.5896 37.4104 4.40012 38.5451 6.62702C39.1852 7.88336 39.5094 9.34104 39.6721 11.3319C39.8349 13.3246 39.835 15.837 39.835 19.2V20.8C39.835 24.163 39.8349 26.6754 39.6721 28.6681C39.5094 30.659 39.1852 32.1166 38.5451 33.373C37.4104 35.5999 35.5999 37.4104 33.373 38.5451C32.1166 39.1852 30.659 39.5094 28.6681 39.6721C26.6754 39.8349 24.163 39.835 20.8 39.835H19.2C15.837 39.835 13.3246 39.8349 11.3319 39.6721C9.34104 39.5094 7.88336 39.1852 6.62702 38.5451C4.40012 37.4104 2.5896 35.5999 1.45494 33.373C0.814804 32.1166 0.490599 30.659 0.327942 28.6681C0.165128 26.6754 0.165 24.163 0.165 20.8V19.2Z" stroke="url(#paint1_linear_2450_30915)" stroke-opacity="0.7" stroke-width="0.33"/>
    <path d="M17 24C13.6863 24 11 21.3137 11 18C11 14.6863 13.6863 12 17 12C19.4597 12 21.5737 13.4801 22.5 15.5983M29 22C29 25.3137 26.3137 28 23 28C20.3841 28 18.1591 26.3259 17.3381 23.9906C17.1191 23.3677 17 22.6978 17 22C17 18.7998 19.5055 16.1847 22.6619 16.0094C22.7738 16.0031 22.8865 16 23 16C26.3137 16 29 18.6863 29 22Z" stroke="#F9F9F9" stroke-width="1.5"/>
    <defs>
        <linearGradient id="paint0_linear_2450_30915" x1="20" y1="0" x2="20" y2="40" gradientUnits="userSpaceOnUse">
            <stop stop-color="#10151C"/>
            <stop offset="0.117896" stop-color="#10151C"/>
            <stop offset="0.213837" stop-color="#11161D"/>
            <stop offset="0.2912" stop-color="#11161E"/>
            <stop offset="0.353363" stop-color="#11171E"/>
            <stop offset="0.403704" stop-color="#11171F"/>
            <stop offset="0.4456" stop-color="#12171F"/>
            <stop offset="0.48243" stop-color="#121820"/>
            <stop offset="0.51757" stop-color="#121820"/>
            <stop offset="0.5544" stop-color="#131921"/>
            <stop offset="0.596296" stop-color="#131921"/>
            <stop offset="0.646637" stop-color="#131922"/>
            <stop offset="0.7088" stop-color="#131922"/>
            <stop offset="0.786163" stop-color="#131A22"/>
            <stop offset="0.882104" stop-color="#141A22"/>
            <stop offset="1" stop-color="#141A22"/>
        </linearGradient>
        <linearGradient id="paint1_linear_2450_30915" x1="19.6667" y1="-10" x2="19.6667" y2="47" gradientUnits="userSpaceOnUse">
            <stop stop-color="#F9F9F9" stop-opacity="0.25"/>
            <stop offset="1" stop-color="#F9F9F9" stop-opacity="0.06"/>
        </linearGradient>
    </defs>
</svg>
