<svg width="40" height="40" viewBox="0 0 40 40" fill="none"
    xmlns="http://www.w3.org/2000/svg">
    <path d="M0 20C0 8.95431 8.95431 0 20 0C31.0457 0 40 8.95431 40 20C40 31.0457 31.0457 40 20 40C8.95431 40 0 31.0457 0 20Z" fill="url(#paint0_linear_2472_33748)"/>
    <path d="M0 20C0 8.95431 8.95431 0 20 0C31.0457 0 40 8.95431 40 20C40 31.0457 31.0457 40 20 40C8.95431 40 0 31.0457 0 20Z" fill="white" fill-opacity="0.02"/>
    <path d="M0.165 20C0.165 9.04543 9.04543 0.165 20 0.165C30.9546 0.165 39.835 9.04543 39.835 20C39.835 30.9546 30.9546 39.835 20 39.835C9.04543 39.835 0.165 30.9546 0.165 20Z" stroke="url(#paint1_linear_2472_33748)" stroke-opacity="0.7" stroke-width="0.33"/>
    <path d="M23.123 15.4166C23.123 17.1425 21.7239 18.5416 19.998 18.5416C18.2722 18.5416 16.873 17.1425 16.873 15.4166C16.873 13.6907 18.2722 12.2916 19.998 12.2916C21.7239 12.2916 23.123 13.6907 23.123 15.4166Z" stroke="#F9F9F9" stroke-width="1.5" stroke-linejoin="round"/>
    <path d="M19.9981 21.0416C16.8351 21.0416 14.5264 23.1445 13.8911 25.9714C13.7834 26.4505 14.1724 26.875 14.6635 26.875H25.3328C25.8238 26.875 26.2128 26.4505 26.1052 25.9714C25.4698 23.1445 23.1611 21.0416 19.9981 21.0416Z" stroke="#F9F9F9" stroke-width="1.5" stroke-linejoin="round"/>
    <defs>
        <linearGradient id="paint0_linear_2472_33748" x1="20" y1="0" x2="20" y2="40" gradientUnits="userSpaceOnUse">
            <stop stop-color="#10151C"/>
            <stop offset="0.117896" stop-color="#10151C"/>
            <stop offset="0.213837" stop-color="#11161D"/>
            <stop offset="0.2912" stop-color="#11161E"/>
            <stop offset="0.353363" stop-color="#11171E"/>
            <stop offset="0.403704" stop-color="#11171F"/>
            <stop offset="0.4456" stop-color="#12171F"/>
            <stop offset="0.48243" stop-color="#121820"/>
            <stop offset="0.51757" stop-color="#121820"/>
            <stop offset="0.5544" stop-color="#131921"/>
            <stop offset="0.596296" stop-color="#131921"/>
            <stop offset="0.646637" stop-color="#131922"/>
            <stop offset="0.7088" stop-color="#131922"/>
            <stop offset="0.786163" stop-color="#131A22"/>
            <stop offset="0.882104" stop-color="#141A22"/>
            <stop offset="1" stop-color="#141A22"/>
        </linearGradient>
        <linearGradient id="paint1_linear_2472_33748" x1="19.6667" y1="-10" x2="19.6667" y2="47" gradientUnits="userSpaceOnUse">
            <stop stop-color="#F9F9F9" stop-opacity="0.25"/>
            <stop offset="1" stop-color="#F9F9F9" stop-opacity="0.06"/>
        </linearGradient>
    </defs>
</svg>
